<?xml version="1.0" encoding="UTF-8"?>
<svg width="180" height="180" viewBox="0 0 180 180" xmlns="http://www.w3.org/2000/svg">
  <defs>
    <radialGradient id="bgGradient" cx="50%" cy="40%" r="70%">
      <stop offset="0%" style="stop-color:#FFE8B6;stop-opacity:1">
        <animate attributeName="stop-color" values="#FFE8B6;#FFD54F;#FFE8B6" dur="4s" repeatCount="indefinite"/>
      </stop>
      <stop offset="100%" style="stop-color:#FFB74D;stop-opacity:1">
        <animate attributeName="stop-color" values="#FFB74D;#FFA726;#FFB74D" dur="4s" repeatCount="indefinite"/>
      </stop>
    </radialGradient>
    <linearGradient id="hatShine" x1="0%" y1="0%" x2="100%" y2="100%">
      <stop offset="0%" style="stop-color:#FFFFFF;stop-opacity:0.9">
        <animate attributeName="stop-opacity" values="0.9;1;0.9" dur="2s" repeatCount="indefinite"/>
      </stop>
      <stop offset="100%" style="stop-color:#F5F5F5;stop-opacity:1">
        <animate attributeName="stop-opacity" values="1;0.95;1" dur="2s" repeatCount="indefinite"/>
      </stop>
    </linearGradient>
  </defs>
  
  <!-- Background circle with gentle breathing animation -->
  <circle cx="90" cy="90" r="85" fill="url(#bgGradient)" stroke="#FF8A65" stroke-width="2">
    <animate attributeName="r" values="85;87;85" dur="3s" repeatCount="indefinite"/>
  </circle>
  
  <!-- Chef Hat with gentle movement -->
  <g id="chef-hat" transform-origin="90 90">
    <g transform-origin="90 70">
      <!-- Main hat body -->
      <path d="M30 60 Q25 45 35 35 Q45 25 55 30 Q65 20 75 30 Q85 15 95 25 Q105 10 115 25 Q125 15 135 30 Q145 25 150 35 Q160 45 150 60 Q145 65 140 62 Q135 65 130 62 Q125 65 120 62 Q115 65 110 62 Q105 65 100 62 Q95 65 90 62 Q85 65 80 62 Q75 65 70 62 Q65 65 60 62 Q55 65 50 62 Q45 65 40 62 Q35 65 30 60 Z" 
            fill="url(#hatShine)" stroke="#E0E0E0" stroke-width="1.5">
        <animateTransform attributeName="transform" type="rotate" values="0 90 70;2 90 70;-2 90 70;0 90 70" dur="4s" repeatCount="indefinite"/>
      </path>
      
      <!-- Hat band -->
      <rect x="30" y="62" width="120" height="20" rx="10" fill="#FFFFFF" stroke="#D0D0D0" stroke-width="1">
        <animate attributeName="fill" values="#FFFFFF;#F8F8F8;#FFFFFF" dur="3s" repeatCount="indefinite"/>
      </rect>
      
      <!-- Hat crease lines with subtle animation -->
      <path d="M50 45 Q55 42 60 45" stroke="#E8E8E8" stroke-width="1" fill="none" opacity="0.7">
        <animate attributeName="opacity" values="0.7;0.5;0.7" dur="2.5s" repeatCount="indefinite"/>
      </path>
      <path d="M70 40 Q75 37 80 40" stroke="#E8E8E8" stroke-width="1" fill="none" opacity="0.7">
        <animate attributeName="opacity" values="0.5;0.7;0.5" dur="2s" repeatCount="indefinite"/>
      </path>
      <path d="M100 38 Q105 35 110 38" stroke="#E8E8E8" stroke-width="1" fill="none" opacity="0.7">
        <animate attributeName="opacity" values="0.7;0.4;0.7" dur="3s" repeatCount="indefinite"/>
      </path>
      <path d="M120 42 Q125 39 130 42" stroke="#E8E8E8" stroke-width="1" fill="none" opacity="0.7">
        <animate attributeName="opacity" values="0.5;0.7;0.5" dur="2.2s" repeatCount="indefinite"/>
      </path>
    </g>
  </g>
  
  <!-- Animated steam swirls -->
  <g id="swirls">
    <!-- Green swirl with floating animation -->
    <g>
      <path d="M45 35 Q35 25 40 20 Q45 15 55 18 Q65 21 70 28" 
            stroke="#4CAF50" stroke-width="2" fill="none" stroke-linecap="round" opacity="0.8">
        <animate attributeName="opacity" values="0.8;0.3;0.8" dur="3s" repeatCount="indefinite"/>
        <animateTransform attributeName="transform" type="translate" values="0,0;0,-5;0,0" dur="3s" repeatCount="indefinite"/>
      </path>
      <path d="M50 32 Q42 24 46 20" stroke="#66BB6A" stroke-width="1" fill="none" stroke-linecap="round" opacity="0.6">
        <animate attributeName="opacity" values="0.6;0.2;0.6" dur="2.5s" repeatCount="indefinite"/>
        <animateTransform attributeName="transform" type="translate" values="0,0;0,-3;0,0" dur="2.5s" repeatCount="indefinite"/>
      </path>
    </g>
    
    <!-- Orange swirl with floating animation -->
    <g>
      <path d="M135 35 Q145 25 140 20 Q135 15 125 18 Q115 21 110 28" 
            stroke="#FF9800" stroke-width="2" fill="none" stroke-linecap="round" opacity="0.8">
        <animate attributeName="opacity" values="0.8;0.3;0.8" dur="3.5s" repeatCount="indefinite"/>
        <animateTransform attributeName="transform" type="translate" values="0,0;0,-4;0,0" dur="3.5s" repeatCount="indefinite"/>
      </path>
      <path d="M130 32 Q138 24 134 20" stroke="#FFB74D" stroke-width="1" fill="none" stroke-linecap="round" opacity="0.6">
        <animate attributeName="opacity" values="0.6;0.2;0.6" dur="2.8s" repeatCount="indefinite"/>
        <animateTransform attributeName="transform" type="translate" values="0,0;0,-2;0,0" dur="2.8s" repeatCount="indefinite"/>
      </path>
    </g>
  </g>
  
  <!-- Breathing shadow -->
  <ellipse cx="90" cy="130" rx="35" ry="8" fill="#8D6E63" opacity="0.3">
    <animate attributeName="opacity" values="0.3;0.2;0.3" dur="2s" repeatCount="indefinite"/>
    <animate attributeName="rx" values="35;37;35" dur="2s" repeatCount="indefinite"/>
  </ellipse>
  
  <!-- Gentle inner glow -->
  <circle cx="90" cy="90" r="80" fill="none" stroke="#FFFFFF" stroke-width="1" opacity="0.3">
    <animate attributeName="opacity" values="0.3;0.1;0.3" dur="4s" repeatCount="indefinite"/>
  </circle>
</svg>