<?xml version="1.0" encoding="UTF-8"?>
<svg width="180" height="180" viewBox="0 0 180 180" xmlns="http://www.w3.org/2000/svg">
  <!-- Background with warm gradient -->
  <defs>
    <radialGradient id="bgGradient" cx="50%" cy="40%" r="70%">
      <stop offset="0%" style="stop-color:#FFE8B6;stop-opacity:1" />
      <stop offset="100%" style="stop-color:#FFB74D;stop-opacity:1" />
    </radialGradient>
    <linearGradient id="hatShine" x1="0%" y1="0%" x2="100%" y2="100%">
      <stop offset="0%" style="stop-color:#FFFFFF;stop-opacity:0.9" />
      <stop offset="100%" style="stop-color:#F5F5F5;stop-opacity:1" />
    </linearGradient>
  </defs>
  
  <!-- Background circle -->
  <circle cx="90" cy="90" r="85" fill="url(#bgGradient)" stroke="#FF8A65" stroke-width="2"/>
  
  <!-- Chef Hat Top (puffy part) -->
  <g id="chef-hat">
    <!-- Main hat body -->
    <path d="M30 60 Q25 45 35 35 Q45 25 55 30 Q65 20 75 30 Q85 15 95 25 Q105 10 115 25 Q125 15 135 30 Q145 25 150 35 Q160 45 150 60 Q145 65 140 62 Q135 65 130 62 Q125 65 120 62 Q115 65 110 62 Q105 65 100 62 Q95 65 90 62 Q85 65 80 62 Q75 65 70 62 Q65 65 60 62 Q55 65 50 62 Q45 65 40 62 Q35 65 30 60 Z" 
          fill="url(#hatShine)" stroke="#E0E0E0" stroke-width="1.5"/>
    
    <!-- Hat band -->
    <rect x="30" y="62" width="120" height="20" rx="10" fill="#FFFFFF" stroke="#D0D0D0" stroke-width="1"/>
    
    <!-- Hat crease lines for detail -->
    <path d="M50 45 Q55 42 60 45" stroke="#E8E8E8" stroke-width="1" fill="none" opacity="0.7"/>
    <path d="M70 40 Q75 37 80 40" stroke="#E8E8E8" stroke-width="1" fill="none" opacity="0.7"/>
    <path d="M100 38 Q105 35 110 38" stroke="#E8E8E8" stroke-width="1" fill="none" opacity="0.7"/>
    <path d="M120 42 Q125 39 130 42" stroke="#E8E8E8" stroke-width="1" fill="none" opacity="0.7"/>
  </g>
  
  <!-- Decorative swirls/steam effects -->
  <g id="swirls" opacity="0.6">
    <!-- Green swirl -->
    <path d="M45 35 Q35 25 40 20 Q45 15 55 18 Q65 21 70 28" 
          stroke="#4CAF50" stroke-width="2" fill="none" stroke-linecap="round"/>
    <path d="M50 32 Q42 24 46 20" stroke="#66BB6A" stroke-width="1" fill="none" stroke-linecap="round"/>
    
    <!-- Orange swirl -->
    <path d="M135 35 Q145 25 140 20 Q135 15 125 18 Q115 21 110 28" 
          stroke="#FF9800" stroke-width="2" fill="none" stroke-linecap="round"/>
    <path d="M130 32 Q138 24 134 20" stroke="#FFB74D" stroke-width="1" fill="none" stroke-linecap="round"/>
  </g>
  
  <!-- Subtle shadow -->
  <ellipse cx="90" cy="130" rx="35" ry="8" fill="#8D6E63" opacity="0.3"/>
  
  <!-- Inner glow for depth -->
  <circle cx="90" cy="90" r="80" fill="none" stroke="#FFFFFF" stroke-width="1" opacity="0.3"/>
</svg>